<?xml version="1.0" encoding="UTF-8" standalone="no"?><!DOCTYPE svg PUBLIC "-//W3C//DTD SVG 1.1//EN" "http://www.w3.org/Graphics/SVG/1.1/DTD/svg11.dtd"><svg width="100%" height="100%" viewBox="0 0 101 96" version="1.1" xmlns="http://www.w3.org/2000/svg" xmlns:xlink="http://www.w3.org/1999/xlink" xml:space="preserve" xmlns:serif="http://www.serif.com/" style="fill-rule:evenodd;clip-rule:evenodd;stroke-linejoin:round;stroke-miterlimit:2;"><path id="lean_man" d="M25.342,21.598l0,-21.144l33.914,-0c14.75,-0 25.221,3.84 31.411,11.519c6.191,7.68 9.286,18.748 9.286,33.203c0,32.526 -13.781,48.789 -41.343,48.789l-33.268,-0l0,-6.352c-0.576,-0.046 -1.643,-0.192 -1.873,-0.655c-0.143,-0.289 0.286,-1.323 0.264,-1.865c-0.039,-0.943 -0.468,-1.514 -0.653,-2.096c-0.21,-0.66 -0.919,-1.018 -1.361,-1.542c-0.093,-0.11 -0.206,-0.247 -0.329,-0.396c-0.025,0.165 -0.068,0.305 -0.167,0.277c-0.59,-0.169 -2.459,-1.336 -3.272,-1.731c-0.116,-0.057 -0.259,-0.106 -0.415,-0.15c-0.117,1.136 -0.394,3.879 -0.577,6.191c-0.016,0.991 -0.017,1.874 0.007,2.477c0.072,1.746 0.724,3.922 0.838,5.171c0.071,0.772 -0.151,2.321 -0.151,2.321l-4.402,0.104c0,-0 -0.564,-0.243 -0.861,-0.241c-0.876,0.006 -2.965,0.312 -4.394,0.275c-1.402,-0.036 -4.18,-0.498 -4.18,-0.498c-0,0 0.031,-1.98 0.655,-2.307c0.281,-0.147 1.286,0.293 1.813,0.27c0.918,-0.04 1.473,-0.481 2.039,-0.672c0.641,-0.216 0.989,-0.945 1.498,-1.401c0.547,-0.488 1.783,-1.53 1.783,-1.53l-0.143,-1.177l0.063,-2.556c0,0 0.417,-0.609 0.406,-0.957c-0.029,-0.914 -0.58,-4.528 -0.58,-4.528c-0.279,-1.658 -0.83,-2.418 -1.037,-4.134c0,0 -6.975,-4.146 -7.418,-4.833c-0.902,-1.4 -1.556,-3.624 0.021,-5.813c0.129,-0.179 0.272,-0.379 0.428,-0.597c0.888,-1.24 1.256,-1.336 2.581,-3.288c2.312,-3.404 4.573,-5.817 4.724,-6.036c0.568,-0.826 1.421,-1.843 1.912,-2.6c0.504,-0.775 -0.706,-1.774 -0.685,-2.706c0.033,-1.435 0.894,-4.974 0.879,-5.902c-0.005,-0.349 -0.981,0.588 -0.964,0.332c0.055,-0.855 1.392,-3.353 1.465,-3.785c0.088,-0.515 -1.145,0.056 -1.491,-0.326c-0.349,-0.388 -0.31,-1.6 -0.605,-1.997c-0.247,-0.334 -0.937,-0.089 -1.163,-0.389c-0.226,-0.3 -0.047,-1.395 -0.195,-1.413c-0.648,-0.076 -2.713,-0.072 -3.656,-0.326c-0.748,-0.201 -1.565,-0.717 -2.007,-1.196c-0.401,-0.435 -0.64,-1.675 -0.64,-1.675c0,-0 -2.155,-1.133 -2.268,-1.322c-0.104,-0.176 1.327,-0.566 1.327,-0.566l2.316,1.271l0.885,0.079c-0,-0 0.63,-0.912 2.066,-0.588c0.284,0.064 5.985,3.818 5.815,2.469c-0.037,-0.289 -0.16,-5.204 0.645,-7.647c0.125,-0.38 2.227,-3.349 2.227,-3.349c-0,-0 -0.069,-0.42 0.082,-0.968c0.134,-0.49 0.49,-1.099 0.483,-1.331c-0.01,-0.31 -0.668,-0.954 -0.658,-0.643c0.031,0.954 -1.559,1.594 -2.139,0.778c-0.152,-0.214 -0.142,-0.555 -0.308,-0.731c-0.165,-0.176 -0.685,-0.326 -0.685,-0.326c0,-0 0.121,-0.526 -0.184,-0.558c-0.24,-0.025 -0.621,-0.315 -0.658,-0.517c-0.026,-0.138 -1.088,0.258 -1.197,0.01c-0.181,-0.41 -0.069,-1.681 -0.251,-2.266c-0.149,-0.48 -0.689,-0.762 -0.839,-1.243c-0.163,-0.52 0.069,-1.549 -0.135,-1.878c-0.196,-0.316 -0.588,0.062 -1.089,-0.097c-0.395,-0.125 -0.891,-0.672 -0.91,-0.858c-0.046,-0.443 0.645,-1.642 0.898,-2.039c0.152,-0.238 0.896,-1.093 1.369,-1.483c0.691,-0.568 1.553,-2.11 2.551,-2.508c0.997,-0.399 2.427,-0.441 3.435,0.119c1.093,0.607 2.519,2.183 3.123,3.527c0.604,1.343 0.273,3.523 0.501,4.532c0.13,0.573 0.866,1.524 0.866,1.524l0.876,0.078c-0,-0 -0,0.593 0.214,0.698c0.283,0.139 1.482,0.133 1.482,0.133c-0,-0 -0.116,1.514 0.122,1.766c0.394,0.415 1.349,1.319 1.881,1.819Zm0,31.552l-1.075,0.162l-0.256,0.805c0,0 -0.743,1.337 -1.176,1.964c-0.538,0.781 -2.057,2.724 -2.057,2.724l-0.594,0.936l-1.301,3.944c0,-0 -0.212,1.247 -0.36,1.697c-0.119,0.361 -0.531,1.004 -0.531,1.004l-0.523,2.555c0,-0 0.078,0.915 0.123,1.612c0.045,0.684 0,2.056 0,2.056l1.347,0.969c0.646,0.06 1.298,0.184 1.92,0.244c1.121,-0.223 2.15,-0.492 2.896,-0.564c0.424,-0.041 1.088,0.091 1.587,0.214l0,-20.322Zm32.784,19.131c5.706,0 9.394,-1.882 11.062,-5.647c1.669,-3.764 2.504,-10.089 2.504,-18.973c-0,-8.884 -0.889,-15.184 -2.665,-18.898c-1.777,-3.714 -5.572,-5.571 -11.386,-5.571l-4.844,-0l-0,49.089l5.329,0Z"/></svg>