<?xml version="1.0" encoding="UTF-8" standalone="no"?><!DOCTYPE svg PUBLIC "-//W3C//DTD SVG 1.1//EN" "http://www.w3.org/Graphics/SVG/1.1/DTD/svg11.dtd"><svg width="100%" height="100%" viewBox="0 0 97 97" version="1.1" xmlns="http://www.w3.org/2000/svg" xmlns:xlink="http://www.w3.org/1999/xlink" xml:space="preserve" xmlns:serif="http://www.serif.com/" style="fill-rule:evenodd;clip-rule:evenodd;stroke-linejoin:round;stroke-miterlimit:2;"><g id="SVG_READY"><path d="M94.979,24.642c-0,-12.962 -10.524,-23.486 -23.486,-23.486l-46.971,0c-12.962,0 -23.485,10.524 -23.485,23.486l-0,46.991c-0,12.962 10.523,23.486 23.485,23.486l46.971,-0c12.962,-0 23.486,-10.524 23.486,-23.486l-0,-46.991Z" style="fill:#fff;"/><path d="M89.24,46.431c0,27.302 -11.568,40.952 -34.703,40.952l-27.925,0l0,-78.492l28.467,0c12.381,0 21.17,3.223 26.366,9.67c5.197,6.446 7.795,15.736 7.795,27.87Zm-35.11,22.751c4.79,0 7.885,-1.58 9.286,-4.739c1.401,-3.16 2.101,-8.469 2.101,-15.926c0,-7.458 -0.745,-12.745 -2.236,-15.863c-1.491,-3.118 -4.677,-4.677 -9.557,-4.677l-4.067,0l0,41.205l4.473,0Z" style="fill:#006fbf;fill-rule:nonzero;"/><path d="M96.008,24.642c-0,-13.53 -10.985,-24.515 -24.515,-24.515c0,0 -46.971,0 -46.971,0c-13.53,0 -24.514,10.985 -24.514,24.515c-0,-0 -0,46.991 -0,46.991c-0,13.53 10.984,24.515 24.514,24.515c0,-0 46.971,-0 46.971,-0c13.53,-0 24.515,-10.985 24.515,-24.515l-0,-46.991Zm-2.058,-0l-0,46.991c-0,12.394 -10.063,22.456 -22.457,22.456l-46.971,0c-12.394,0 -22.456,-10.062 -22.456,-22.456l-0,-46.991c-0,-12.394 10.062,-22.457 22.456,-22.457l46.971,0c12.394,0 22.457,10.063 22.457,22.457Zm-67.338,2.458l0,-18.209l28.467,0c12.381,0 21.17,3.223 26.366,9.67c5.197,6.446 7.795,15.736 7.795,27.87c0,27.302 -11.568,40.952 -34.703,40.952l-27.925,0l0,-6.709c-0.35,-0.017 -1.507,-0.104 -1.726,-0.547c-0.117,-0.234 0.233,-1.076 0.215,-1.517c-0.032,-0.769 -0.381,-1.233 -0.532,-1.708c-0.171,-0.537 -0.748,-0.828 -1.108,-1.255c-0.076,-0.089 -0.168,-0.201 -0.268,-0.322c-0.02,0.134 -0.055,0.248 -0.136,0.225c-0.48,-0.137 -2.002,-1.087 -2.664,-1.409c-0.094,-0.046 -0.211,-0.087 -0.337,-0.122c-0.096,0.925 -0.322,3.158 -0.471,5.041c-0.013,0.806 -0.014,1.526 0.006,2.017c0.059,1.421 0.589,3.193 0.683,4.21c0.057,0.628 -0.124,1.889 -0.124,1.889l-3.583,0.085c-0,-0 -0.459,-0.198 -0.702,-0.196c-0.713,0.005 -2.414,0.254 -3.577,0.224c-1.142,-0.03 -3.404,-0.405 -3.404,-0.405c0,-0 0.026,-1.613 0.534,-1.879c0.228,-0.12 1.047,0.239 1.476,0.22c0.747,-0.033 1.199,-0.392 1.66,-0.548c0.522,-0.175 0.805,-0.769 1.22,-1.14c0.445,-0.398 1.452,-1.246 1.452,-1.246l-0.117,-0.958l0.051,-2.081c0,-0 0.34,-0.496 0.331,-0.78c-0.024,-0.744 -0.473,-3.687 -0.473,-3.687c-0.226,-1.349 -0.675,-1.968 -0.844,-3.365c0,-0 -5.679,-3.376 -6.039,-3.935c-0.735,-1.14 -1.268,-2.951 0.016,-4.733c0.105,-0.146 0.222,-0.309 0.349,-0.486c0.723,-1.01 1.022,-1.088 2.101,-2.677c1.883,-2.772 3.724,-4.736 3.847,-4.915c0.462,-0.672 1.157,-1.501 1.557,-2.117c0.41,-0.631 -0.575,-1.445 -0.558,-2.203c0.026,-1.168 0.727,-4.05 0.716,-4.806c-0.005,-0.284 -0.799,0.479 -0.786,0.271c0.046,-0.697 1.134,-2.73 1.193,-3.082c0.072,-0.419 -0.932,0.046 -1.213,-0.266c-0.285,-0.315 -0.253,-1.302 -0.493,-1.626c-0.201,-0.271 -0.763,-0.072 -0.947,-0.316c-0.184,-0.244 -0.038,-1.136 -0.159,-1.15c-0.528,-0.062 -2.209,-0.059 -2.977,-0.266c-0.609,-0.163 -1.274,-0.584 -1.633,-0.974c-0.327,-0.354 -0.522,-1.364 -0.522,-1.364c0,0 -1.755,-0.922 -1.846,-1.076c-0.085,-0.143 1.08,-0.461 1.08,-0.461l1.886,1.035l0.72,0.064c0,0 0.513,-0.742 1.683,-0.478c0.23,0.052 4.873,3.108 4.734,2.01c-0.03,-0.235 -0.13,-4.237 0.525,-6.226c0.102,-0.31 1.813,-2.727 1.813,-2.727c0,-0 -0.056,-0.342 0.067,-0.788c0.11,-0.399 0.399,-0.895 0.393,-1.084c-0.008,-0.253 -0.543,-0.776 -0.535,-0.523c0.025,0.776 -1.27,1.298 -1.742,0.633c-0.124,-0.175 -0.116,-0.452 -0.25,-0.595c-0.135,-0.144 -0.558,-0.266 -0.558,-0.266c0,0 0.098,-0.428 -0.15,-0.454c-0.196,-0.02 -0.505,-0.257 -0.536,-0.421c-0.021,-0.113 -0.886,0.21 -0.975,0.008c-0.146,-0.334 -0.056,-1.368 -0.204,-1.845c-0.121,-0.391 -0.561,-0.621 -0.683,-1.012c-0.133,-0.423 0.056,-1.261 -0.11,-1.529c-0.16,-0.257 -0.479,0.05 -0.887,-0.079c-0.321,-0.102 -0.725,-0.547 -0.74,-0.698c-0.038,-0.361 0.525,-1.338 0.731,-1.661c0.124,-0.194 0.729,-0.89 1.115,-1.207c0.562,-0.463 1.264,-1.718 2.076,-2.043c0.812,-0.324 1.977,-0.359 2.797,0.098c0.89,0.494 2.051,1.777 2.543,2.871c0.492,1.094 0.223,2.869 0.408,3.69c0.105,0.467 0.705,1.241 0.705,1.241l0.713,0.064c-0,-0 -0,0.483 0.174,0.568c0.231,0.113 1.207,0.108 1.207,0.108c0,-0 -0.094,1.233 0.1,1.438c0.38,0.401 1.404,1.363 1.732,1.67Zm2.088,4.215c0.013,0.037 0.026,0.072 0.039,0.107c0.176,0.481 0.085,1.148 0.149,1.404c0.07,0.28 -0.059,0.714 -0.188,1.045l-0,51.425l25.837,-0c10.843,-0 19.013,-3.102 24.435,-9.5c5.524,-6.519 8.18,-16.327 8.18,-29.365c0,-11.553 -2.384,-20.423 -7.332,-26.56c-4.864,-6.035 -13.15,-8.892 -24.741,-8.892c0,-0 -26.379,-0 -26.379,-0l-0,20.336Zm25.43,39.955c5.831,-0 9.489,-2.135 11.195,-5.981c1.476,-3.33 2.28,-8.915 2.28,-16.772c-0,-7.886 -0.864,-13.467 -2.441,-16.764c-1.802,-3.767 -5.544,-5.863 -11.44,-5.863l-4.067,-0c-1.153,-0 -2.088,0.934 -2.088,2.087l0,41.205c0,1.153 0.935,2.088 2.088,2.088l4.473,-0Zm-27.518,-18.699l-1.076,0.162l-0.209,0.656c0,-0 -0.605,1.088 -0.957,1.599c-0.439,0.636 -1.675,2.218 -1.675,2.218l-0.484,0.761l-1.059,3.211c0,0 -0.172,1.016 -0.293,1.383c-0.097,0.293 -0.432,0.817 -0.432,0.817l-0.426,2.08c-0,-0 0.063,0.745 0.1,1.313c0.036,0.557 -0,1.674 -0,1.674l1.097,0.788c0.526,0.05 1.056,0.151 1.563,0.199c0.912,-0.181 1.751,-0.4 2.358,-0.459c0.406,-0.039 1.083,0.117 1.493,0.226l0,-16.628Zm27.518,16.611c4.79,0 7.885,-1.58 9.286,-4.739c1.401,-3.16 2.101,-8.469 2.101,-15.926c0,-7.458 -0.745,-12.745 -2.236,-15.863c-1.491,-3.118 -4.677,-4.677 -9.557,-4.677l-4.067,0l0,41.205l4.473,0Z"/></g></svg>