<?xml version="1.0" encoding="UTF-8" standalone="no"?><!DOCTYPE svg PUBLIC "-//W3C//DTD SVG 1.1//EN" "http://www.w3.org/Graphics/SVG/1.1/DTD/svg11.dtd"><svg width="100%" height="100%" viewBox="0 0 438 512" version="1.1" xmlns="http://www.w3.org/2000/svg" xmlns:xlink="http://www.w3.org/1999/xlink" xml:space="preserve" xmlns:serif="http://www.serif.com/" style="fill-rule:evenodd;clip-rule:evenodd;stroke-linejoin:round;stroke-miterlimit:2;"><path d="M360.395,381.643c0,15.495 -12.707,27.984 -28.065,27.984l-30.007,0l0,71.846c0,16.753 -13.664,30.526 -30.526,30.526l-1.284,0c-16.753,0 -30.527,-13.664 -30.527,-30.526l0,-71.846l-41.948,0l-0,71.846c-0,16.753 -13.665,30.526 -30.553,30.526l-1.256,0c-16.889,0 -30.553,-13.664 -30.553,-30.526l0,-71.846l-29.978,0c-15.495,0 -28.094,-12.489 -28.094,-27.984l0,-209.743l282.791,0l0,209.743Zm-297.411,-51.241c-0,16.779 -13.663,30.553 -30.525,30.553l-1.284,-0c-16.862,-0 -30.525,-13.774 -30.525,-30.553l-0,-132.895c-0,-16.753 13.665,-30.525 30.525,-30.525l1.284,-0c16.753,-0 30.525,13.773 30.525,30.525l-0,132.895Zm374.369,0c0,16.779 -13.665,30.553 -30.525,30.553l-1.286,-0c-16.751,-0 -30.524,-13.774 -30.524,-30.553l-0,-132.895c-0,-16.753 13.663,-30.525 30.524,-30.525l1.286,-0c16.779,-0 30.525,13.773 30.525,30.525l0,132.895Zm-76.41,-171.209l-283.857,-0c-0.22,-2.788 -0.437,-5.548 -0.437,-8.335c-0,-45.474 29.049,-85.182 71.954,-106.225l-23.802,-36.81c-1.504,-2.242 -0.847,-5.439 1.503,-6.942c2.351,-1.613 5.548,-0.956 7.024,1.503l24.677,37.986c18.474,-7.57 39.16,-11.833 61.051,-11.833c21.78,-0 42.494,4.263 60.969,11.833l24.759,-37.986c1.504,-2.459 4.59,-3.116 6.942,-1.503c2.351,1.503 2.978,4.7 1.504,6.942l-23.833,36.809c42.933,21.042 71.956,60.749 71.956,106.224c-0,2.788 -0.22,5.548 -0.41,8.337Zm-76.137,-76.001c-7.569,0 -13.663,5.958 -13.663,13.555c0,7.569 6.094,13.663 13.663,13.663c7.598,-0 13.665,-6.094 13.665,-13.663c-0.001,-7.597 -6.067,-13.555 -13.665,-13.555Zm-131.613,0c-7.569,0 -13.663,5.958 -13.663,13.555c0,7.569 6.094,13.663 13.663,13.663c7.57,-0 13.665,-6.094 13.665,-13.663c0,-7.597 -6.094,-13.555 -13.665,-13.555Z" style="fill:#fff;"/></svg>