<?xml version="1.0" encoding="UTF-8" standalone="no"?><!DOCTYPE svg PUBLIC "-//W3C//DTD SVG 1.1//EN" "http://www.w3.org/Graphics/SVG/1.1/DTD/svg11.dtd"><svg width="100%" height="100%" viewBox="0 0 209 256" version="1.1" xmlns="http://www.w3.org/2000/svg" xmlns:xlink="http://www.w3.org/1999/xlink" xml:space="preserve" xmlns:serif="http://www.serif.com/" style="fill-rule:evenodd;clip-rule:evenodd;stroke-linejoin:round;stroke-miterlimit:2;"><path d="M202.343,87.279c-1.485,1.152 -27.702,15.925 -27.702,48.773c0,37.994 33.361,51.436 34.359,51.768c-0.154,0.82 -5.3,18.409 -17.589,36.33c-10.958,15.772 -22.402,31.517 -39.812,31.517c-17.41,0 -21.89,-10.113 -41.988,-10.113c-19.586,0 -26.55,10.446 -42.475,10.446c-15.925,0 -27.036,-14.593 -39.812,-32.515c-14.798,-21.046 -26.754,-53.74 -26.754,-84.77c-0,-49.772 32.361,-76.168 64.211,-76.168c16.923,0 31.03,11.112 41.655,11.112c10.113,-0 25.884,-11.778 45.137,-11.778c7.297,0 33.514,0.666 50.77,25.398Zm-59.91,-46.469c7.963,-9.447 13.595,-22.555 13.595,-35.664c0,-1.818 -0.153,-3.661 -0.486,-5.146c-12.955,0.486 -28.368,8.628 -37.662,19.407c-7.296,8.295 -14.107,21.403 -14.107,34.691c0,1.997 0.333,3.994 0.487,4.634c0.819,0.154 2.151,0.333 3.482,0.333c11.623,0 26.242,-7.783 34.691,-18.255Z" style="fill:#fff;fill-rule:nonzero;"/></svg>