<?xml version="1.0" encoding="UTF-8" standalone="no"?><!DOCTYPE svg PUBLIC "-//W3C//DTD SVG 1.1//EN" "http://www.w3.org/Graphics/SVG/1.1/DTD/svg11.dtd"><svg width="100%" height="100%" viewBox="0 0 312 256" version="1.1" xmlns="http://www.w3.org/2000/svg" xmlns:xlink="http://www.w3.org/1999/xlink" xml:space="preserve" xmlns:serif="http://www.serif.com/" style="fill-rule:evenodd;clip-rule:evenodd;strokeLinejoin:round;stroke-miterlimit:2;"><g><path d="M91.477,201.144l-17.588,0l-0,18.286l54.808,-0l-0,-36.571l-31.047,0c-0,7.643 -2.464,14.358 -6.173,18.285Z" style="fill:#fff;fill-rule:nonzero;"/><path d="M201.785,256l73.087,0l0,-109.711l-73.087,-0l0,109.711Zm18.272,-91.426l36.543,-0l0,73.141l-36.543,-0l-0,-73.141Z" style="fill:#fff;fill-rule:nonzero;"/><path d="M146.967,91.433l0,127.997l36.544,-0l-0,-18.286l-18.272,0l-0,-91.426l127.903,0l-0,109.712l18.271,-0l0,-127.997l-164.446,0Z" style="fill:#fff;fill-rule:nonzero;"/><path d="M19.073,18.285l200.982,0l0,54.863l18.272,-0l0,-73.148l-237.526,0l-0,164.575l127.895,-0l0,-36.571l-109.623,-0l-0,-109.719Z" style="fill:#fff;fill-rule:nonzero;"/></g></svg>
